<svg width="37" height="39" viewBox="0 0 37 39" fill="none" xmlns="http://www.w3.org/2000/svg">
<g clip-path="url(#clip0_6511_1210)">
<g clip-path="url(#clip1_6511_1210)">
<path d="M31.8604 20.386V18.25C31.8604 14.6696 30.4381 11.2358 27.9064 8.70406C25.3746 6.17232 21.9409 4.75 18.3604 4.75C14.78 4.75 11.3462 6.17232 8.81446 8.70406C6.28271 11.2358 4.8604 14.6696 4.8604 18.25V20.386C3.28714 21.0787 1.9996 22.2909 1.21333 23.8196C0.427064 25.3483 0.189791 27.1006 0.541236 28.7834C0.892681 30.4661 1.81151 31.977 3.1439 33.0632C4.4763 34.1494 6.14138 34.7449 7.8604 34.75H10.8604V19.75H7.8604V18.25C7.8604 15.4652 8.96664 12.7945 10.9358 10.8254C12.905 8.85625 15.5757 7.75 18.3604 7.75C21.1452 7.75 23.8159 8.85625 25.7851 10.8254C27.7542 12.7945 28.8604 15.4652 28.8604 18.25V19.75H25.8604V31.75H19.8604V34.75H28.8604C30.5795 34.7449 32.2445 34.1494 33.5769 33.0632C34.9093 31.977 35.8282 30.4661 36.1796 28.7834C36.5311 27.1006 36.2938 25.3483 35.5075 23.8196C34.7211 22.2909 33.4337 21.0787 31.8604 20.386ZM7.8604 31.75C6.66692 31.75 5.52233 31.2759 4.67842 30.432C3.8345 29.5881 3.3604 28.4435 3.3604 27.25C3.3604 26.0565 3.8345 24.9119 4.67842 24.068C5.52233 23.2241 6.66692 22.75 7.8604 22.75V31.75ZM28.8604 31.75V22.75C30.0539 22.75 31.1985 23.2241 32.0424 24.068C32.8862 24.9119 33.3604 26.0565 33.3604 27.25C33.3604 28.4435 32.8862 29.5881 32.0424 30.432C31.1985 31.2759 30.0539 31.75 28.8604 31.75Z" fill="#253D4E"/>
</g>
</g>
<defs>
<clipPath id="clip0_6511_1210">
<rect width="36" height="38" fill="white" transform="translate(0.359375 0.75)"/>
</clipPath>
<clipPath id="clip1_6511_1210">
<rect width="36" height="36" fill="white" transform="translate(0.359375 1.75)"/>
</clipPath>
</defs>
</svg>
